# File created by Blade
# Date/Time:  Tue Sep 30 19:28:49 2014
#---------------------------------------------------------
:version 1.10
:name HOM
:units
  mass 1.0
  length 1.000000
  angle deg
:documentation
     Acclaim Skeleton File
:root
   axis xyz
   order TX TY TZ RX RY RZ
   position 0.000000 0.000000 0.000000
   orientation 0 0 0
:bonedata
   begin
      id 1
      name RightUpLeg_dum
      direction -1.000000 0.000000 0.000000
      length 3.766986
      axis 0.0 0.0 0.0 xyz
   end
   begin
      id 2
      name LeftUpLeg_dum
      direction 1.000000 0.000000 0.000000
      length 3.766986
      axis 0.0 0.0 0.0 xyz
   end
   begin
      id 3
      name Spine_dum
      direction 0.000000 1.000000 0.000000
      length 7.779697
      axis 0.0 0.0 0.0 xyz
   end
   begin
      id 4
      name RightUpLeg
      direction 0.000000 -1.000000 0.000000
      length 18.017682
      axis 0.0 0.0 0.0 xyz
      dof rx ry rz
   end
   begin
      id 5
      name RightLeg
      direction 0.000000 -1.000000 0.000000
      length 16.881075
      axis 0.0 0.0 0.0 xyz
      dof rx ry rz
   end
   begin
      id 6
      name RightFoot
      direction 0.000000 -0.258819 0.965926
      length 5.770812
      axis 15.0 0.0 0.0 xyz
      dof rx ry rz
   end
   begin
      id 7
      name RightToeBase
      direction 0.000000 0.000000 1.000000
      length 2.952750
      axis 0.0 0.0 0.0 xyz
      dof rx ry rz
   end
   begin
      id 8
      name LeftUpLeg
      direction 0.000000 -1.000000 0.000000
      length 18.017682
      axis 0.0 0.0 0.0 xyz
      dof rx ry rz
   end
   begin
      id 9
      name LeftLeg
      direction 0.000000 -1.000000 0.000000
      length 16.881075
      axis 0.0 0.0 0.0 xyz
      dof rx ry rz
   end
   begin
      id 10
      name LeftFoot
      direction 0.000000 -0.258819 0.965926
      length 5.770812
      axis 15.0 0.0 0.0 xyz
      dof rx ry rz
   end
   begin
      id 11
      name LeftToeBase
      direction 0.000000 0.000000 1.000000
      length 2.952750
      axis 0.0 0.0 0.0 xyz
      dof rx ry rz
   end
   begin
      id 12
      name Spine
      direction 0.000000 1.000000 0.000000
      length 0.000000
      axis 0.0 0.0 0.0 xyz
      dof rx ry rz
   end
   begin
      id 13
      name Spine_dum1
      direction 0.000000 1.000000 0.000000
      length 10.941760
      axis 0.0 0.0 0.0 xyz
   end
   begin
      id 14
      name Spine_dum2
      direction 0.000000 1.000000 0.000000
      length 10.941760
      axis 0.0 0.0 0.0 xyz
   end
   begin
      id 15
      name Spine_dum3
      direction 0.000000 1.000000 0.000000
      length 16.646042
      axis 0.0 0.0 0.0 xyz
   end
   begin
      id 16
      name RightShoulder
      direction -1.000000 0.000000 0.000000
      length 7.708937
      axis 0.0 0.0 90.0 xyz
      dof rx ry rz
   end
   begin
      id 17
      name RightArm
      direction -1.000000 0.000000 0.000000
      length 11.521345
      axis 0.0 0.0 90.0 xyz
      dof rx ry rz
   end
   begin
      id 18
      name RightForeArm
      direction -1.000000 0.000000 0.000000
      length 10.175898
      axis 0.0 0.0 90.0 xyz
      dof ry rz rx
   end
   begin
      id 19
      name RightHand
      direction -1.000000 0.000000 0.000000
      length 0.000000
      axis 0.0 0.0 90.0 xyz
      dof rx ry rz
   end
   begin
      id 20
      name RightHand_dum1
      direction -1.000000 0.000000 0.000000
      length 3.937000
      axis 0.0 0.0 90.0 xyz
   end
   begin
      id 21
      name RightHand_dum2
      direction 0.000000 0.000000 0.000000
      length 0.000000
      axis 0.0 0.0 90.0 xyz
   end
   begin
      id 22
      name RightHandThumb1
      direction 0.000000 0.000000 1.000000
      length 3.937000
      axis 0.0 0.0 90.0 xyz
      dof rx rz ry
   end
   begin
      id 23
      name LeftShoulder
      direction 1.000000 0.000000 0.000000
      length 7.708937
      axis 0.0 0.0 -90.0 xyz
      dof rx ry rz
   end
   begin
      id 24
      name LeftArm
      direction 1.000000 0.000000 0.000000
      length 11.521345
      axis 0.0 0.0 -90.0 xyz
      dof rx ry rz
   end
   begin
      id 25
      name LeftForeArm
      direction 1.000000 0.000000 0.000000
      length 10.175898
      axis 0.0 0.0 -90.0 xyz
      dof ry rz rx
   end
   begin
      id 26
      name LeftHand
      direction 1.000000 0.000000 0.000000
      length 0.000000
      axis 0.0 0.0 -90.0 xyz
      dof rx ry rz
   end
   begin
      id 27
      name LeftHand_dum1
      direction 1.000000 0.000000 0.000000
      length 3.937000
      axis 0.0 0.0 -90.0 xyz
   end
   begin
      id 28
      name LeftHand_dum2
      direction 0.000000 0.000000 0.000000
      length 0.000000
      axis 0.0 0.0 -90.0 xyz
   end
   begin
      id 29
      name LeftHandThumb1
      direction 0.000000 0.000000 1.000000
      length 3.937000
      axis 0.0 0.0 -90.0 xyz
      dof rx rz ry
   end
   begin
      id 30
      name Head
      direction 0.000000 1.000000 0.000000
      length 4.527550
      axis 0.0 0.0 0.0 xyz
      dof rx ry rz
   end
:hierarchy
   begin
      root RightUpLeg_dum LeftUpLeg_dum Spine_dum
      RightUpLeg_dum RightUpLeg
      LeftUpLeg_dum LeftUpLeg
      Spine_dum Spine
      RightUpLeg RightLeg
      RightLeg RightFoot
      RightFoot RightToeBase
      LeftUpLeg LeftLeg
      LeftLeg LeftFoot
      LeftFoot LeftToeBase
      Spine Spine_dum1 Spine_dum2 Spine_dum3
      Spine_dum1 RightShoulder
      Spine_dum2 LeftShoulder
      Spine_dum3 Head
      RightShoulder RightArm
      RightArm RightForeArm
      RightForeArm RightHand
      RightHand RightHand_dum1 RightHand_dum2
      RightHand_dum2 RightHandThumb1
      LeftShoulder LeftArm
      LeftArm LeftForeArm
      LeftForeArm LeftHand
      LeftHand LeftHand_dum1 LeftHand_dum2
      LeftHand_dum2 LeftHandThumb1
   end

# File created by Blade
# Date/Time:  Mon Sep 22 15:50:36 2014
# Frame Rate: 120.000 fps
#------------------------------------------------------
:FULLY-SPECIFIED
:DEGREES
725
root 2.486478 36.962451 3.470672 -2.510914 -9.048690 1.523723
RightUpLeg 9.994857 -1.292150 -4.309595
RightLeg -4.770805 -0.000000 0.000000
RightFoot -12.407194 -13.863679 15.408319
RightToeBase 14.776874 -0.000000 -0.000000
LeftUpLeg 11.322945 6.719649 1.170400
LeftLeg -3.779482 -0.000000 0.000000
LeftFoot -11.313520 14.838790 -17.512672
LeftToeBase 9.184022 -0.000000 -0.000000
Spine -0.858326 -28.062586 -4.401816
RightShoulder 14.324429 -23.173575 -10.761851
RightArm 35.968385 -36.973285 53.670284
RightForeArm 14.845673 -0.000000 29.437682
RightHand 3.183091 0.000000 0.094570
RightHandThumb1 -24.326973 -0.000000 -32.862282
LeftShoulder 10.083624 10.772526 24.053633
LeftArm 83.570207 4.405292 -103.622491
LeftForeArm -55.999207 -0.000000 117.908220
LeftHand -2.961900 -0.000000 -3.581272
LeftHandThumb1 -26.253704 0.000000 33.147579
Head -2.804823 37.979657 4.647106
726
root 2.481659 36.964258 3.471490 -2.484318 -9.139747 1.504949
RightUpLeg 9.951998 -1.306479 -4.291563
RightLeg -4.765964 -0.000000 0.000000
RightFoot -12.352556 -13.771556 15.382236
RightToeBase 14.736160 -0.000000 -0.000000
LeftUpLeg 11.315593 6.781797 1.194706
LeftLeg -3.787635 -0.000000 0.000000
LeftFoot -11.304640 14.865034 -17.525369
LeftToeBase 9.213824 -0.000000 -0.000000
Spine -0.888213 -28.089413 -4.394477
RightShoulder 14.287590 -23.201739 -10.699006
RightArm 36.025175 -36.920749 53.600714
RightForeArm 14.842724 -0.000000 29.517417
RightHand 3.186978 -0.000000 0.084257
RightHandThumb1 -24.326973 -0.000000 -32.862282
LeftShoulder 10.040535 10.834934 24.082173
LeftArm 83.768184 3.819370 -103.739733
LeftForeArm -56.414875 -0.000000 118.289874
LeftHand -2.655545 -0.000000 -3.931293
LeftHandThumb1 -26.253704 0.000000 33.147579
Head -2.807062 37.260051 5.247744
727
root 2.476947 36.966086 3.471426 -2.442302 -9.219667 1.488543
RightUpLeg 9.885415 -1.386174 -4.283000
RightLeg -4.743818 -0.000000 0.000000
RightFoot -12.306411 -13.633229 15.350545
RightToeBase 14.801626 -0.000000 -0.000000
LeftUpLeg 11.288771 6.831050 1.213518
LeftLeg -3.792921 -0.000000 0.000000
LeftFoot -11.306718 14.884816 -17.548579
LeftToeBase 9.260664 -0.000000 -0.000000
Spine -0.945721 -28.127067 -4.377776
RightShoulder 14.250001 -23.155596 -10.620281
RightArm 35.982298 -36.911742 53.593888
RightForeArm 14.854438 -0.000000 29.599582
RightHand 3.177190 -0.000000 0.078227
RightHandThumb1 -24.326973 -0.000000 -32.862282
LeftShoulder 10.050386 10.884663 24.088876
LeftArm 83.981363 3.190124 -103.892686
LeftForeArm -56.786235 -0.000000 118.771169
LeftHand -2.653219 -0.000000 -4.160333
LeftHandThumb1 -26.253704 0.000000 33.147579
Head -2.774142 36.506144 5.844226
728
root 2.472258 36.966510 3.472714 -2.421439 -9.291037 1.480896
RightUpLeg 9.847744 -1.395179 -4.273359
RightLeg -4.730047 -0.000000 0.000000
RightFoot -12.290537 -13.575603 15.316870
RightToeBase 14.770971 -0.000000 -0.000000
LeftUpLeg 11.280169 6.885859 1.226250
LeftLeg -3.790461 -0.000000 0.000000
LeftFoot -11.323336 14.897919 -17.564498
LeftToeBase 9.262083 -0.000000 -0.000000
Spine -0.992901 -28.162841 -4.368037
RightShoulder 14.203814 -23.076381 -10.553710
RightArm 35.923112 -36.929823 53.622803
RightForeArm 14.838041 -0.000000 29.650768
RightHand 3.205094 -0.000000 0.068891
RightHandThumb1 -24.326973 -0.000000 -32.862282
LeftShoulder 10.137334 11.036757 24.187945
LeftArm 84.288203 2.487344 -104.159950
LeftForeArm -57.320345 -0.000000 119.413251
LeftHand -2.750735 0.000000 -4.112817
LeftHandThumb1 -26.253704 0.000000 33.147579
Head -2.685490 35.726616 6.486880
729
root 2.468684 36.967403 3.472539 -2.398941 -9.366569 1.466123
RightUpLeg 9.810326 -1.341917 -4.252657
RightLeg -4.721115 -0.000000 0.000000
RightFoot -12.263680 -13.553594 15.312807
RightToeBase 14.739205 -0.000000 -0.000000
LeftUpLeg 11.265131 6.913382 1.240773
LeftLeg -3.777404 -0.000000 0.000000
LeftFoot -11.305010 14.926311 -17.523573
LeftToeBase 9.146196 -0.000000 -0.000000
Spine -1.001981 -28.193934 -4.377518
RightShoulder 14.183059 -22.959482 -10.466697
RightArm 35.748563 -36.915635 53.724667
RightForeArm 14.762634 -0.000000 29.752169
RightHand 3.233571 -0.000000 0.000131
RightHandThumb1 -24.326973 -0.000000 -32.862282
LeftShoulder 10.112890 11.191771 24.193683
LeftArm 84.650807 1.901519 -104.286300
LeftForeArm -57.735328 -0.000000 120.000049
LeftHand -2.693646 -0.000000 -4.381057
LeftHandThumb1 -26.253704 0.000000 33.147579
Head -2.666152 35.005234 7.117698
730
root 2.462316 36.969096 3.472970 -2.363175 -9.438951 1.449892
RightUpLeg 9.778934 -1.268114 -4.225568
RightLeg -4.746826 -0.000000 0.000000
RightFoot -12.241650 -13.544282 15.347726
RightToeBase 14.756713 -0.000000 -0.000000
LeftUpLeg 11.242005 6.955437 1.262272
LeftLeg -3.778900 -0.000000 0.000000
LeftFoot -11.336135 14.959905 -17.589055
LeftToeBase 9.222964 -0.000000 -0.000000
Spine -1.022716 -28.251285 -4.375601
RightShoulder 14.101849 -23.051998 -10.388681
RightArm 35.907583 -36.838014 53.570903
RightForeArm 14.788265 -0.000000 29.813343
RightHand 3.235489 -0.000000 -0.017457
RightHandThumb1 -24.326973 -0.000000 -32.862282
LeftShoulder 10.056167 11.254146 24.144380
LeftArm 84.931732 1.362605 -104.432101
LeftForeArm -58.353350 0.000000 120.716645
LeftHand -2.602710 -0.000000 -4.617837
LeftHandThumb1 -26.253704 0.000000 33.147579
Head -2.664683 34.306235 7.742081
